<mxfile host="Electron" agent="Mozilla/5.0 (Windows NT 10.0; Win64; x64) AppleWebKit/537.36 (KHTML, like Gecko) draw.io/27.0.9 Chrome/134.0.6998.205 Electron/35.4.0 Safari/537.36" version="27.0.9">
  <diagram name="PÃ¡gina-1" id="dimBa1hKJHNype1Kq-bW">
    <mxGraphModel dx="946" dy="661" grid="1" gridSize="10" guides="1" tooltips="1" connect="1" arrows="1" fold="1" page="1" pageScale="1" pageWidth="827" pageHeight="1169" math="0" shadow="0">
      <root>
        <mxCell id="0" />
        <mxCell id="1" parent="0" />
        <mxCell id="P5fEC2_rjLhfOlPloG7m-1" value="Profesor" style="whiteSpace=wrap;html=1;align=center;fillColor=#f0a30a;strokeColor=#BD7000;fontColor=#000000;" vertex="1" parent="1">
          <mxGeometry x="110" y="60" width="100" height="40" as="geometry" />
        </mxCell>
        <mxCell id="P5fEC2_rjLhfOlPloG7m-2" value="imparte" style="shape=rhombus;perimeter=rhombusPerimeter;whiteSpace=wrap;html=1;align=center;fillColor=#76608a;fontColor=#ffffff;strokeColor=#432D57;" vertex="1" parent="1">
          <mxGeometry x="310" y="60" width="90" height="40" as="geometry" />
        </mxCell>
        <mxCell id="P5fEC2_rjLhfOlPloG7m-3" value="" style="endArrow=none;html=1;rounded=0;exitX=0;exitY=0.5;exitDx=0;exitDy=0;entryX=1;entryY=0.5;entryDx=0;entryDy=0;" edge="1" source="P5fEC2_rjLhfOlPloG7m-2" parent="1" target="P5fEC2_rjLhfOlPloG7m-1">
          <mxGeometry relative="1" as="geometry">
            <mxPoint x="287" y="50" as="sourcePoint" />
            <mxPoint x="240" y="80" as="targetPoint" />
          </mxGeometry>
        </mxCell>
        <mxCell id="P5fEC2_rjLhfOlPloG7m-4" value="(1,1)" style="resizable=0;html=1;whiteSpace=wrap;align=right;verticalAlign=bottom;" connectable="0" vertex="1" parent="P5fEC2_rjLhfOlPloG7m-3">
          <mxGeometry x="1" relative="1" as="geometry">
            <mxPoint x="34" as="offset" />
          </mxGeometry>
        </mxCell>
        <mxCell id="P5fEC2_rjLhfOlPloG7m-5" value="" style="endArrow=none;html=1;rounded=0;exitX=1;exitY=0.5;exitDx=0;exitDy=0;entryX=0;entryY=0.5;entryDx=0;entryDy=0;" edge="1" source="P5fEC2_rjLhfOlPloG7m-2" parent="1" target="P5fEC2_rjLhfOlPloG7m-7">
          <mxGeometry relative="1" as="geometry">
            <mxPoint x="287" y="50" as="sourcePoint" />
            <mxPoint x="460" y="80" as="targetPoint" />
          </mxGeometry>
        </mxCell>
        <mxCell id="P5fEC2_rjLhfOlPloG7m-6" value="(1,N)" style="resizable=0;html=1;whiteSpace=wrap;align=right;verticalAlign=bottom;" connectable="0" vertex="1" parent="P5fEC2_rjLhfOlPloG7m-5">
          <mxGeometry x="1" relative="1" as="geometry">
            <mxPoint as="offset" />
          </mxGeometry>
        </mxCell>
        <mxCell id="P5fEC2_rjLhfOlPloG7m-7" value="Asignatura" style="whiteSpace=wrap;html=1;align=center;fillColor=#f0a30a;strokeColor=#BD7000;fontColor=#000000;" vertex="1" parent="1">
          <mxGeometry x="510" y="60" width="100" height="40" as="geometry" />
        </mxCell>
        <mxCell id="P5fEC2_rjLhfOlPloG7m-8" value="Alumno" style="whiteSpace=wrap;html=1;align=center;fillColor=#f0a30a;strokeColor=#BD7000;fontColor=#000000;" vertex="1" parent="1">
          <mxGeometry x="240" y="180" width="100" height="40" as="geometry" />
        </mxCell>
        <mxCell id="P5fEC2_rjLhfOlPloG7m-9" value="matriculado" style="shape=rhombus;perimeter=rhombusPerimeter;whiteSpace=wrap;html=1;align=center;fillColor=#76608a;fontColor=#ffffff;strokeColor=#432D57;" vertex="1" parent="1">
          <mxGeometry x="460" y="170" width="90" height="40" as="geometry" />
        </mxCell>
        <mxCell id="P5fEC2_rjLhfOlPloG7m-10" value="" style="endArrow=none;html=1;rounded=0;exitX=0;exitY=0.5;exitDx=0;exitDy=0;entryX=1;entryY=0.5;entryDx=0;entryDy=0;" edge="1" source="P5fEC2_rjLhfOlPloG7m-9" parent="1" target="P5fEC2_rjLhfOlPloG7m-8">
          <mxGeometry relative="1" as="geometry">
            <mxPoint x="437" y="160" as="sourcePoint" />
            <mxPoint x="390" y="190" as="targetPoint" />
          </mxGeometry>
        </mxCell>
        <mxCell id="P5fEC2_rjLhfOlPloG7m-11" value="(1,N)" style="resizable=0;html=1;whiteSpace=wrap;align=right;verticalAlign=bottom;" connectable="0" vertex="1" parent="P5fEC2_rjLhfOlPloG7m-10">
          <mxGeometry x="1" relative="1" as="geometry">
            <mxPoint x="34" as="offset" />
          </mxGeometry>
        </mxCell>
        <mxCell id="P5fEC2_rjLhfOlPloG7m-12" value="" style="endArrow=none;html=1;rounded=0;exitX=1;exitY=0.5;exitDx=0;exitDy=0;entryX=0.5;entryY=1;entryDx=0;entryDy=0;" edge="1" source="P5fEC2_rjLhfOlPloG7m-9" parent="1" target="P5fEC2_rjLhfOlPloG7m-7">
          <mxGeometry relative="1" as="geometry">
            <mxPoint x="437" y="160" as="sourcePoint" />
            <mxPoint x="610" y="190" as="targetPoint" />
          </mxGeometry>
        </mxCell>
        <mxCell id="P5fEC2_rjLhfOlPloG7m-13" value="(1,M)" style="resizable=0;html=1;whiteSpace=wrap;align=right;verticalAlign=bottom;" connectable="0" vertex="1" parent="P5fEC2_rjLhfOlPloG7m-12">
          <mxGeometry x="1" relative="1" as="geometry">
            <mxPoint y="20" as="offset" />
          </mxGeometry>
        </mxCell>
        <mxCell id="P5fEC2_rjLhfOlPloG7m-14" value="" style="endArrow=none;html=1;rounded=0;exitX=0.25;exitY=1;exitDx=0;exitDy=0;" edge="1" target="P5fEC2_rjLhfOlPloG7m-15" parent="1" source="P5fEC2_rjLhfOlPloG7m-1">
          <mxGeometry relative="1" as="geometry">
            <mxPoint x="70" y="155" as="sourcePoint" />
            <mxPoint x="130" y="155" as="targetPoint" />
          </mxGeometry>
        </mxCell>
        <mxCell id="P5fEC2_rjLhfOlPloG7m-15" value="&lt;u&gt;DNI&lt;/u&gt;" style="ellipse;whiteSpace=wrap;html=1;align=center;" vertex="1" parent="1">
          <mxGeometry x="105" y="140" width="50" height="30" as="geometry" />
        </mxCell>
        <mxCell id="P5fEC2_rjLhfOlPloG7m-16" value="" style="endArrow=none;html=1;rounded=0;exitX=0.5;exitY=1;exitDx=0;exitDy=0;" edge="1" target="P5fEC2_rjLhfOlPloG7m-17" parent="1" source="P5fEC2_rjLhfOlPloG7m-8">
          <mxGeometry relative="1" as="geometry">
            <mxPoint x="270" y="275" as="sourcePoint" />
            <mxPoint x="330" y="275" as="targetPoint" />
          </mxGeometry>
        </mxCell>
        <mxCell id="P5fEC2_rjLhfOlPloG7m-17" value="&lt;u&gt;NMatricula&lt;/u&gt;" style="ellipse;whiteSpace=wrap;html=1;align=center;" vertex="1" parent="1">
          <mxGeometry x="270" y="260" width="85" height="30" as="geometry" />
        </mxCell>
        <mxCell id="P5fEC2_rjLhfOlPloG7m-18" value="" style="endArrow=none;html=1;rounded=0;exitX=1;exitY=0.5;exitDx=0;exitDy=0;" edge="1" target="P5fEC2_rjLhfOlPloG7m-19" parent="1" source="P5fEC2_rjLhfOlPloG7m-7">
          <mxGeometry relative="1" as="geometry">
            <mxPoint x="630" y="80" as="sourcePoint" />
            <mxPoint x="690" y="80" as="targetPoint" />
          </mxGeometry>
        </mxCell>
        <mxCell id="P5fEC2_rjLhfOlPloG7m-19" value="&lt;u&gt;codigo&lt;/u&gt;" style="ellipse;whiteSpace=wrap;html=1;align=center;" vertex="1" parent="1">
          <mxGeometry x="665" y="65" width="55" height="30" as="geometry" />
        </mxCell>
        <mxCell id="P5fEC2_rjLhfOlPloG7m-20" value="" style="endArrow=none;html=1;rounded=0;exitX=0.5;exitY=1;exitDx=0;exitDy=0;" edge="1" target="P5fEC2_rjLhfOlPloG7m-21" parent="1" source="P5fEC2_rjLhfOlPloG7m-9">
          <mxGeometry relative="1" as="geometry">
            <mxPoint x="500" y="235" as="sourcePoint" />
            <mxPoint x="560" y="235" as="targetPoint" />
          </mxGeometry>
        </mxCell>
        <mxCell id="P5fEC2_rjLhfOlPloG7m-21" value="&lt;u&gt;cursoEscolar&lt;/u&gt;" style="ellipse;whiteSpace=wrap;html=1;align=center;" vertex="1" parent="1">
          <mxGeometry x="535" y="220" width="50" height="30" as="geometry" />
        </mxCell>
      </root>
    </mxGraphModel>
  </diagram>
</mxfile>
